<mxfile host="app.diagrams.net" modified="2023-05-28T10:37:02.634Z" agent="Mozilla/5.0 (Macintosh; Intel Mac OS X 10_15_7) AppleWebKit/537.36 (KHTML, like Gecko) Chrome/113.0.0.0 Safari/537.36" version="21.3.5" etag="0E8dqiDaCb9mAnWIDeng" type="github">
  <diagram name="Page-1" id="onkCBb9gZkq1iaKnCwhv">
    <mxGraphModel>
      <root>
        <mxCell id="0" />
        <mxCell id="1" parent="0" />
      </root>
    </mxGraphModel>
  </diagram>
</mxfile>
